<svg width="391" height="782" viewBox="0 0 391 782" fill="none" xmlns="http://www.w3.org/2000/svg">
<g clip-path="url(#clip0_5_18)">
<path d="M177.983 333.758C199.175 365.898 197.533 363.239 199.645 366.993C198.738 347.913 197.147 328.872 194.874 309.907C194.138 307.113 193.089 304.411 191.746 301.852C167.895 264.551 136.459 225.294 102.207 196.595C76.4797 177.827 67.7213 171.649 62.1691 163.985C56.1477 155.931 57.7899 147.172 68.8943 151.63C76.4797 154.836 78.3565 157.26 112.139 185.099C142.735 212.572 169.182 244.339 190.652 279.409C181.111 219.898 164.533 160.623 134.348 108.463C130.829 102.442 127.622 96.577 123.947 91.2594C123.076 90.0633 122.71 88.5723 122.93 87.1088C123.149 85.6454 123.936 84.3272 125.12 83.4394C126.316 82.568 127.807 82.2026 129.271 82.4221C130.734 82.6416 132.052 83.4285 132.94 84.6124C171.493 131.063 193.858 204.18 205.275 262.987C209.576 198.237 203.477 65.7662 199.097 47.3892C197.221 39.5692 205.431 36.2066 210.358 42.6972C227.64 81.0152 223.965 248.285 210.358 292.546C213.408 312.644 215.676 333.21 217.161 354.011C219.742 347.13 224.981 337.98 238.119 306.857C255.949 264.316 265.098 231.237 258.686 187.524C257.591 180.251 256.418 172.666 254.307 165.08C254.045 164.264 253.946 163.404 254.017 162.549C254.087 161.695 254.325 160.863 254.717 160.1C255.109 159.338 255.648 158.66 256.302 158.106C256.956 157.551 257.713 157.131 258.529 156.869C259.346 156.607 260.206 156.509 261.06 156.579C261.915 156.65 262.747 156.888 263.509 157.28C264.272 157.672 264.95 158.211 265.504 158.865C266.058 159.519 266.478 160.276 266.74 161.092C275.968 184.943 279.643 208.716 273.935 243.046C266.662 285.195 247.659 320.698 228.657 355.419C224.278 363.239 222.166 372.858 218.647 381.616C219.273 399.211 219.351 414.773 219.038 430.569C239.918 403.512 273.778 369.104 294.501 335.556C303.416 321.167 313.582 298.88 313.739 282.537C313.686 281.626 313.815 280.715 314.117 279.855C314.42 278.994 314.891 278.203 315.502 277.526C316.113 276.85 316.852 276.301 317.677 275.913C318.502 275.524 319.396 275.304 320.307 275.264C321.218 275.211 322.129 275.34 322.989 275.643C323.849 275.945 324.641 276.416 325.318 277.027C325.994 277.638 326.543 278.378 326.931 279.203C327.319 280.028 327.54 280.922 327.58 281.833C329.926 304.667 320.933 324.452 308.186 344.002C285.43 379.426 247.894 414.695 218.647 445.818C217.474 473.814 214.894 503.608 209.889 534.888C262.908 484.449 327.345 408.595 329.77 397.569C330.195 395.996 331.185 394.634 332.549 393.742C333.913 392.85 335.558 392.491 337.17 392.732C338.781 392.974 340.249 393.799 341.292 395.051C342.335 396.303 342.882 397.895 342.829 399.524C339.779 430.726 235.538 530.118 207.074 551.545C203.212 572.831 198.12 593.876 191.825 614.574C325.468 504.703 327.58 501.34 337.589 500.011C346.426 499.542 348.85 509.551 343.845 514.4C292.546 563.978 229.126 602.531 186.351 631.309C150.926 733.516 95.0913 770.817 126.371 721.63C142.795 695.314 156.051 667.149 165.862 637.721C162.265 629.275 156.087 615.825 154.992 613.088C143.732 584.623 99.2359 494.537 70.3801 470.373C67.6431 467.714 64.0459 466.15 61.6217 463.1C56.6169 456.844 63.4985 450.041 70.7711 451.292C107.212 457.939 156.713 572.502 167.504 608.396L171.727 619.657C176.654 603.626 181.111 586.578 185.49 565.23C171.18 535.435 149.753 478.897 115.892 430.882C104.788 415.086 77.5745 393.19 74.4465 385.213C68.6597 370.355 77.0271 365.585 88.7571 376.689C105.101 394.363 119.568 407.969 129.03 422.045C154.914 460.442 171.962 499.933 189.244 546.071C194.138 517.996 197.453 489.669 199.175 461.224C173.839 414.46 103.537 335.243 56.3041 313.347C55.7239 313.137 55.1908 312.814 54.7353 312.398C54.2798 311.981 53.9108 311.479 53.6494 310.92C53.388 310.361 53.2393 309.755 53.2117 309.139C53.1842 308.522 53.2784 307.906 53.4889 307.326C53.6994 306.746 54.0221 306.213 54.4387 305.757C54.8552 305.302 55.3574 304.933 55.9165 304.671C56.4757 304.41 57.0808 304.261 57.6974 304.234C58.3141 304.206 58.9301 304.3 59.5103 304.511C68.1123 307.17 77.8091 311.471 87.7405 317.961C127.935 344.002 176.185 401.479 200.192 442.612C200.739 428.458 200.896 416.884 200.896 405.232C194.014 375.282 190.808 374.656 167.348 341.969C153.898 324.139 85.5509 253.212 52.8633 232.489C49.8135 230.69 45.8253 228.891 44.9651 225.138C44.5741 222.87 46.3727 220.759 49.1879 220.133C52.1595 219.507 55.2875 220.133 58.2591 220.68C85.3945 228.422 161.718 310.923 178.296 333.992L177.983 333.758Z" fill="#167364"/>
</g>
<defs>
<clipPath id="clip0_5_18">
<rect width="782" height="391" fill="white" transform="matrix(-4.37114e-08 1 1 4.37114e-08 0 0)"/>
</clipPath>
</defs>
</svg>
